Coordinates
version=1
nRows=22
nColumns=33
inDegrees=yes

Units are S.I. units (second, meters, Newtons, ...)
Angles are in degrees.

endheader
time	ground_thorax_rot_x	ground_thorax_rot_y	ground_thorax_rot_z	ground_thorax_tx	ground_thorax_ty	ground_thorax_tz	clav_prot_r	clav_elev_r	scapula_abduction_r	scapula_elevation_r	scapula_upward_rot_r	scapula_winging_r	shoulder_elv_r	plane_of_elev_r	axial_rot_r	elbow_flexion_r	pro_sup_r	wrist_flex_r	wrist_dev_r	clav_prot_l	clav_elev_l	scapula_abduction_l	scapula_elevation_l	scapula_upward_rot_l	scapula_winging_l	shoulder_elv_l	plane_of_elev_l	axial_rot_l	elbow_flexion_l	pro_sup_l	wrist_flex_l	wrist_dev_l	
8.6500	-30.445159	-33.903618	39.394636	-26.079864	828.727334	-40.185893	45.000000	-45.000000	42.086514	-45.000000	-26.493168	2512.257654	-823.794077	-90.000000	20.297985	3217.908112	-252.871855	12.637606	11.264208	0.069554	32.738192	-32.896043	-45.000000	-45.000000	4407.745027	-3881.635686	28.349538	55.767837	-8.595383	49.092941	13.205525	-19.040863	
8.6600	-29.915432	-34.237541	40.219454	-23.366834	827.236435	-40.018516	45.000000	-45.000000	42.059677	-45.000000	-26.703287	2512.333709	-823.838609	-90.000000	20.364585	3217.949307	-251.961354	12.568938	11.175549	-0.008283	32.693083	-32.721887	-45.000000	-45.000000	4407.645726	-3881.712875	28.279697	55.507387	-8.687054	49.218722	13.183852	-18.896945	
8.6700	-29.374046	-34.558359	41.054819	-20.671247	825.742920	-39.854004	45.000000	-45.000000	42.028004	-45.000000	-26.936035	2512.406129	-823.885771	-90.000000	20.433152	3217.992069	-251.051352	12.503403	11.084152	-0.074287	32.649704	-32.542007	-45.000000	-45.000000	4407.537596	-3881.789285	28.199362	55.220247	-8.777296	49.341313	13.155509	-18.742529	
8.6800	-28.808276	-34.874178	41.922565	-17.992181	824.244528	-39.692836	45.000000	-45.000000	42.004286	-45.000000	-27.206738	2512.462316	-823.936219	-90.000000	20.504192	3218.031414	-250.146931	12.442591	10.987530	-0.121856	32.603080	-32.345275	-45.000000	-45.000000	4407.403811	-3881.855557	28.095790	54.897983	-8.864791	49.460794	13.114654	-18.564955	
8.6900	-28.232474	-35.180631	42.804760	-15.328743	822.738243	-39.535517	45.000000	-45.000000	41.962233	-45.000000	-27.509112	2512.522487	-823.991128	-90.000000	20.578740	3218.077808	-249.251642	12.383438	10.886065	-0.175539	32.558931	-32.141421	-45.000000	-45.000000	4407.269269	-3881.920116	27.989903	54.540227	-8.952683	49.574853	13.067834	-18.376142	
8.7000	-27.646037	-35.476460	43.696388	-12.680063	821.220839	-39.382203	45.000000	-45.000000	41.910391	-45.000000	-27.840517	2512.584097	-824.046602	-90.000000	20.652959	3218.128932	-248.359216	12.327893	10.781009	-0.229710	32.515367	-31.933181	-45.000000	-45.000000	4407.136960	-3881.993409	27.881331	54.161756	-9.033843	49.681339	13.018514	-18.185150	
8.7100	-27.060674	-35.757498	44.578942	-10.045257	819.689363	-39.232366	45.000000	-45.000000	41.833236	-45.000000	-28.190568	2512.664502	-824.103934	-90.000000	20.728369	3218.194852	-247.459452	12.272651	10.673528	-0.298609	32.475984	-31.730791	-45.000000	-45.000000	4407.029645	-3882.084857	27.787566	53.770234	-9.111973	49.779800	12.975642	-18.007635	
8.7200	-26.456720	-36.032843	45.482468	-7.423448	818.141510	-39.084617	45.000000	-45.000000	41.756802	-45.000000	-28.573894	2512.736619	-824.160553	-90.000000	20.802452	3218.262099	-246.550944	12.223354	10.560992	-0.366662	32.430203	-31.521386	-45.000000	-45.000000	4406.916506	-3882.181246	27.680546	53.361175	-9.181992	49.872136	12.928782	-17.827559	
8.7300	-25.853671	-36.296320	46.384509	-4.813411	816.575531	-38.936769	45.000000	-45.000000	41.655007	-45.000000	-28.973305	2512.821103	-824.222822	-90.000000	20.881672	3218.345839	-245.633496	12.171918	10.445602	-0.452332	32.388553	-31.312963	-45.000000	-45.000000	4406.821758	-3882.284462	27.586312	52.930802	-9.254856	49.958912	12.886584	-17.656966	
8.7400	-25.244464	-36.550258	47.290946	-2.214006	814.990336	-38.786136	45.000000	-45.000000	41.549081	-45.000000	-29.393694	2512.904090	-824.285799	-90.000000	20.961277	3218.434612	-244.703892	12.122074	10.327771	-0.533308	32.344072	-31.102956	-45.000000	-45.000000	4406.727003	-3882.393956	27.485337	52.491222	-9.322471	50.040774	12.843241	-17.489073	
8.7500	-24.636176	-36.796137	48.198274	0.375721	813.385123	-38.629943	45.000000	-45.000000	41.426740	-45.000000	-29.833147	2512.995380	-824.355190	-90.000000	21.047054	3218.536727	-243.766370	12.070039	10.208089	-0.622047	32.301350	-30.889568	-45.000000	-45.000000	4406.637000	-3882.502343	27.387118	52.032066	-9.394389	50.120595	12.799867	-17.322425	
8.7600	-24.015855	-37.041372	49.129487	2.956157	811.759038	-38.465682	45.000000	-45.000000	41.301188	-45.000000	-30.306519	2513.076871	-824.427806	-90.000000	21.135689	3218.641014	-242.831909	12.019333	10.085662	-0.707463	32.253623	-30.662957	-45.000000	-45.000000	4406.530233	-3882.598118	27.272541	51.547395	-9.465794	50.200429	12.747653	-17.142604	
8.7700	-23.400956	-37.280573	50.060897	5.526871	810.110755	-38.291346	45.000000	-45.000000	41.149507	-45.000000	-30.802586	2513.171157	-824.507493	-90.000000	21.231006	3218.760634	-241.907590	11.964614	9.965037	-0.810305	32.211699	-30.431446	-45.000000	-45.000000	4406.435374	-3882.691222	27.168915	51.036961	-9.541960	50.280442	12.697497	-16.967270	
8.7800	-22.792097	-37.510166	50.985052	8.086073	808.438391	-38.105461	45.000000	-45.000000	40.980911	-45.000000	-31.320571	2513.275477	-824.587210	-90.000000	21.326182	3218.889182	-240.990319	11.909977	9.848208	-0.913435	32.171802	-30.201295	-45.000000	-45.000000	4406.352202	-3882.791585	27.069598	50.517845	-9.610454	50.360817	12.649896	-16.801373	
8.7900	-22.184469	-37.735544	51.907083	10.630285	806.739615	-37.907007	45.000000	-45.000000	40.804933	-45.000000	-31.867962	2513.387210	-824.669047	-90.000000	21.423432	3219.024446	-240.082360	11.855693	9.737496	-1.021800	32.133907	-29.968060	-45.000000	-45.000000	4406.280571	-3882.899119	26.972102	49.986491	-9.670857	50.443682	12.604227	-16.644945	
8.8000	-21.576189	-37.956447	52.836118	13.154715	805.011715	-37.695169	45.000000	-45.000000	40.620367	-45.000000	-32.449276	2513.498305	-824.752492	-90.000000	21.522248	3219.164150	-239.192032	11.804477	9.631206	-1.131284	32.094694	-29.728804	-45.000000	-45.000000	4406.209151	-3883.005349	26.868647	49.438931	-9.720142	50.530214	12.554991	-16.489111	
8.8100	-20.970955	-38.173956	53.764580	15.653277	803.252195	-37.469153	45.000000	-45.000000	40.428537	-45.000000	-33.063077	2513.613696	-824.839008	-90.000000	21.624120	3219.310232	-238.325541	11.752953	9.532992	-1.248115	32.059429	-29.484632	-45.000000	-45.000000	4406.149946	-3883.117269	26.768298	48.873851	-9.760549	50.618847	12.506839	-16.341782	
8.8200	-20.369951	-38.386716	54.694930	18.119294	801.459041	-37.227988	45.000000	-45.000000	40.225417	-45.000000	-33.709092	2513.732125	-824.927358	-90.000000	21.727845	3219.465458	-237.489949	11.704176	9.440496	-1.367244	32.024382	-29.235280	-45.000000	-45.000000	4406.096753	-3883.229652	26.666501	48.292591	-9.791013	50.707872	12.458649	-16.199506	
8.8300	-19.771069	-38.597557	55.629040	20.545629	799.631330	-36.970489	45.000000	-45.000000	40.015435	-45.000000	-34.388263	2513.850641	-825.017695	-90.000000	21.833565	3219.627073	-236.693564	11.656885	9.355689	-1.492702	31.992068	-28.976307	-45.000000	-45.000000	4406.049084	-3883.340667	26.562468	47.691382	-9.814685	50.794812	12.409108	-16.060578	
8.8400	-19.175357	-38.805738	56.571728	22.925435	797.769209	-36.695290	45.000000	-45.000000	39.793487	-45.000000	-35.099816	2513.966747	-825.112191	-90.000000	21.943392	3219.799394	-235.947952	11.613629	9.276657	-1.624318	31.959170	-28.705330	-45.000000	-45.000000	4406.000332	-3883.440322	26.453973	47.070220	-9.835856	50.876804	12.358969	-15.921554	
8.8500	-18.583458	-39.013062	57.516873	25.252000	795.874320	-36.401054	45.000000	-45.000000	39.564254	-45.000000	-35.839999	2514.081408	-825.209943	-90.000000	22.056411	3219.979639	-235.262055	11.572887	9.206271	-1.763477	31.929223	-28.421850	-45.000000	-45.000000	4405.956267	-3883.531827	26.343364	46.435042	-9.856497	50.949611	12.310177	-15.785988	
8.8600	-17.998469	-39.216613	58.459399	27.519191	793.949607	-36.086747	45.000000	-45.000000	39.333145	-45.000000	-36.605799	2514.191394	-825.312354	-90.000000	22.174028	3220.164658	-234.645629	11.538518	9.144692	-1.906618	31.898021	-28.129671	-45.000000	-45.000000	4405.912427	-3883.615164	26.225349	45.789976	-9.874249	51.009382	12.263627	-15.654099	
